# xmcd
# 
# Track frame offsets:
#     150
#     13274
#     29340
#     41642
#     53240
#     66689
#     77671
#     89581
#     102373
#     112068
#     124116
#     138830
#     153574
#     167808
#     180593
#     192644
#     205109
#     217397
# 
# Disc length: 3051
# 
# Revision: 2
# Processed by: cddbd v1.5.2PL0 Copyright (c) Steve Scherf et al.
# Submitted via: fre:ac v1.0.17
# 
DISCID=150be912
DTITLE=California Blues 1940-1948 - CD 1 - California Blues 1940-1948
DYEAR=1999
DGENRE=Blues
TTITLE0=Thunder Smith - L.A. Blues
TTITLE1=Guitar Slim Green - Alla Blues
TTITLE2=Black Biamond - T.P. Railer
TTITLE3=Sidney Maiden - Eclipse Of The Sun
TTITLE4=Sonny Boy Johnson - Desert Blues
TTITLE5=Jese Thomas - Another Friend Like Me
TTITLE6=Smokey Hogg - Worryin' Mind
TTITLE7=Merci Dee - G.I. Fever
TTITLE8=Jimmy Mc Cracklin - Baby Wan't You Go
TTITLE9=Nat King Cole - Gone With The Draft
TTITLE10=Jimmy Mc Cracklin - Bad Luck And Trouble
TTITLE11=Cecil Gant - Special Delivery 
TTITLE12=Ivory Joe Hunter - Reconversion Blues
TTITLE13=Charles Brown - I Ain't Gonna Be Like That
TTITLE14=Big Joe Turner - Playboy Blues
TTITLE15=TBone Walker  - I'm In A Awful mood
TTITLE16=Amos Milburn - Operation Blues
TTITLE17=Hadda Brooks - Blues In B-Flat
EXTD=Frémeaux et Associés\nFA175
EXTT0=
EXTT1=
EXTT2=
EXTT3=
EXTT4=
EXTT5=
EXTT6=
EXTT7=
EXTT8=
EXTT9=
EXTT10=
EXTT11=
EXTT12=
EXTT13=
EXTT14=
EXTT15=
EXTT16=
EXTT17=
PLAYORDER=
